Coordinates
version=1
nRows=28
nColumns=33
inDegrees=yes

Units are S.I. units (second, meters, Newtons, ...)
Angles are in degrees.

endheader
time	ground_thorax_rot_x	ground_thorax_rot_y	ground_thorax_rot_z	ground_thorax_tx	ground_thorax_ty	ground_thorax_tz	clav_prot_r	clav_elev_r	scapula_abduction_r	scapula_elevation_r	scapula_upward_rot_r	scapula_winging_r	shoulder_elv_r	plane_of_elev_r	axial_rot_r	elbow_flexion_r	pro_sup_r	wrist_flex_r	wrist_dev_r	clav_prot_l	clav_elev_l	scapula_abduction_l	scapula_elevation_l	scapula_upward_rot_l	scapula_winging_l	shoulder_elv_l	plane_of_elev_l	axial_rot_l	elbow_flexion_l	pro_sup_l	wrist_flex_l	wrist_dev_l	
2.4000	-38.912746	-6.949980	11.196638	-94.458635	766.396770	5.631851	5.935704	-45.000000	42.301390	-45.000000	-31.073123	-2968.517867	-1551.252721	145.034041	180.000000	724.144598	48.440714	20.496538	15.754421	19.596392	40.373504	-44.616185	-41.574308	-33.356929	4039.466344	-2813.286597	20.709006	-57.488134	735.890103	194.926932	-1.465594	-6.448741	
2.4100	-38.937052	-6.898726	10.865292	-92.992337	765.997464	5.715411	6.121881	-45.000000	42.527386	-45.000000	-30.635234	-2968.483105	-1551.305026	144.999642	180.000000	724.196131	48.970429	20.565535	15.650320	19.366718	40.287711	-44.737152	-41.318121	-33.090392	4039.506579	-2813.329059	20.998241	-55.918047	735.379790	183.868829	-1.025298	-7.262073	
2.4200	-38.945750	-6.808369	10.443714	-91.581262	765.635356	5.801523	6.328077	-45.000000	42.857963	-45.000000	-29.994169	-2968.491071	-1551.364901	144.973370	180.000000	724.265000	49.631809	20.658265	15.527058	19.083351	40.203125	-44.808844	-41.039084	-32.661809	4039.564786	-2813.413468	21.509212	-53.025057	734.315432	162.765175	0.148108	-8.617226	
2.4300	-38.957382	-6.665905	9.954867	-90.285257	765.354848	5.893764	6.412129	-45.000000	43.262056	-45.000000	-29.126996	-2968.532628	-1551.472497	145.001763	180.000000	724.334266	50.353952	20.765642	15.385467	18.896703	40.152043	-44.878085	-40.743860	-32.040979	4039.632559	-2813.530164	22.139523	-49.171655	732.773678	133.819317	1.937281	-10.392309	
2.4400	-38.973204	-6.498268	9.431383	-89.118867	765.158260	5.993019	6.425025	-45.000000	43.706885	-45.000000	-28.148236	-2968.589043	-1551.599565	145.061652	180.000000	724.404190	51.065270	20.881982	15.242665	18.770524	40.115787	-44.931478	-40.460146	-31.319025	4039.707938	-2813.679241	22.889337	-44.553709	730.874406	99.164952	4.199860	-12.460279	
2.4500	-38.996257	-6.362307	8.960677	-88.104876	765.052821	6.100823	6.388533	-45.000000	44.095895	-45.000000	-27.257896	-2968.628604	-1551.723270	145.126868	180.000000	724.463019	51.600676	20.985292	15.126314	18.701839	40.096972	-44.963909	-40.222940	-30.653843	4039.755876	-2813.813233	23.571989	-40.303459	729.118106	67.798673	6.306753	-14.321425	
2.4600	-39.030202	-6.249038	8.532285	-87.253030	765.033509	6.217897	6.323194	-45.000000	44.443887	-45.000000	-26.456882	-2968.652600	-1551.837446	145.199123	180.000000	724.519647	51.996720	21.086008	15.035889	18.675758	40.085906	-44.985639	-40.041641	-30.038001	4039.785622	-2813.948170	24.166415	-36.558370	727.566008	40.695835	8.172548	-15.918364	
2.4700	-39.072323	-6.192243	8.200036	-86.565643	765.089811	6.343832	6.266846	-45.000000	44.669240	-45.000000	-25.899446	-2968.638892	-1551.915730	145.241133	180.000000	724.569605	52.168464	21.168573	14.986523	18.666207	40.084989	-44.993471	-39.925787	-29.592016	4039.788829	-2814.044750	24.552183	-34.178827	726.606457	24.536814	9.310836	-16.887809	
2.4800	-39.124391	-6.169061	7.932015	-86.042223	765.211201	6.477011	6.211746	-45.000000	44.810470	-45.000000	-25.513627	-2968.599452	-1551.969898	145.269237	180.000000	724.624670	52.221470	21.249733	14.962945	18.668410	40.098274	-44.999997	-39.862806	-29.246466	4039.771466	-2814.112162	24.733540	-32.982173	726.148685	17.411295	9.830421	-17.340300	
2.4900	-39.179238	-6.163666	7.705217	-85.678477	765.387893	6.613974	6.169560	-45.000000	44.876855	-45.000000	-25.270922	-2968.549628	-1551.998594	145.265238	180.000000	724.689667	52.215626	21.330531	14.953189	18.671045	40.127083	-44.999995	-39.827543	-28.979517	4039.762307	-2814.152397	24.769803	-32.797905	726.119159	17.723626	9.822335	-17.370607	
2.5000	-39.237245	-6.147640	7.476641	-85.467451	765.610957	6.749855	6.131432	-45.000000	44.943546	-45.000000	-25.036698	-2968.508113	-1552.020558	145.268397	180.000000	724.775909	52.294639	21.433381	14.933417	18.651871	40.174769	-44.999991	-39.802627	-28.676650	4039.756476	-2814.184622	24.768415	-32.689898	726.114597	18.010812	9.808257	-17.401241	
2.5100	-39.298883	-6.123996	7.258835	-85.400612	765.872543	6.879031	6.104508	-45.000000	44.981701	-45.000000	-24.871726	-2968.473375	-1552.030029	145.249669	180.000000	724.876257	52.413944	21.543751	14.906598	18.631050	40.228966	-44.999984	-39.783465	-28.399250	4039.788733	-2814.214276	24.801729	-32.628674	726.126133	18.274793	9.784859	-17.432750	
2.5200	-39.365987	-6.128919	7.094502	-85.470068	766.165846	6.996266	6.082539	-45.000000	44.995957	-45.000000	-24.789167	-2968.433225	-1552.035367	145.248437	180.000000	724.989464	52.547228	21.662196	14.875006	18.592929	40.301216	-44.999970	-39.781132	-28.164243	4039.798406	-2814.203865	24.781875	-32.599203	726.163390	18.524145	9.763412	-17.473856	
2.5300	-39.431482	-6.146180	6.955202	-85.669306	766.485317	7.097480	6.072459	-45.000000	44.998484	-45.000000	-24.773652	-2968.408195	-1552.033213	145.226355	180.000000	725.109432	52.681606	21.776779	14.839233	18.572285	40.366080	-44.999947	-39.781365	-27.983295	4039.850388	-2814.197886	24.800629	-32.588856	726.199435	18.763689	9.725875	-17.510536	
2.5400	-39.495748	-6.187229	6.855246	-85.994474	766.826411	7.180281	6.070109	-45.000000	44.997284	-45.000000	-24.806894	-2968.386879	-1552.021443	145.212964	180.000000	725.233791	52.805711	21.892574	14.804718	18.536327	40.432031	-44.999905	-39.800065	-27.848460	4039.869915	-2814.159214	24.765957	-32.599049	726.247060	18.998287	9.694655	-17.555126	
2.5500	-39.553584	-6.224016	6.758066	-86.443685	767.185506	7.243893	6.078255	-45.000000	44.995135	-45.000000	-24.872034	-2968.389420	-1551.996548	145.164235	180.000000	725.354342	52.911225	21.997013	14.773277	18.523965	40.476596	-44.999830	-39.823578	-27.757073	4039.941818	-2814.149975	24.793787	-32.615512	726.284213	19.223535	9.645768	-17.591255	
2.5600	-39.606103	-6.268284	6.687350	-87.016683	767.560000	7.288779	6.086908	-45.000000	44.991284	-45.000000	-24.963964	-2968.396677	-1551.953322	145.122883	180.000000	725.474754	52.986830	22.099501	14.750915	18.492252	40.516142	-44.999696	-39.860827	-27.695500	4039.978177	-2814.105708	24.770163	-32.641296	726.344785	19.440132	9.612081	-17.639865	
2.5700	-39.648743	-6.310289	6.629531	-87.713945	767.948445	7.316085	6.103307	-45.000000	44.984390	-45.000000	-25.084998	-2968.426973	-1551.894567	145.058210	180.000000	725.588964	53.025049	22.186016	14.735274	18.478108	40.533417	-44.999455	-39.902359	-27.671396	4040.059213	-2814.093701	24.798726	-32.657077	726.404526	19.641816	9.565717	-17.683059	
2.5800	-39.684448	-6.355023	6.597785	-88.535987	768.350545	7.327219	6.118915	-45.000000	44.972029	-45.000000	-25.237473	-2968.466728	-1551.816137	144.994825	180.000000	725.698888	53.019233	22.268866	14.733468	18.448520	40.538464	-44.999024	-39.951203	-27.666816	4040.120707	-2814.062927	24.796451	-32.660818	726.482496	19.825794	9.532716	-17.735955	
2.5900	-39.713833	-6.403403	6.589550	-89.482823	768.767129	7.323538	6.136500	-45.000000	44.949919	-45.000000	-25.419238	-2968.525007	-1551.731176	144.925024	180.000000	725.803100	52.966842	22.335282	14.737166	18.430092	40.533762	-44.998251	-39.995065	-27.684377	4040.232866	-2814.058268	24.836258	-32.633803	726.560987	19.982470	9.487819	-17.783744	
2.6000	-39.745085	-6.457453	6.617044	-90.553561	769.200462	7.306228	6.150734	-45.000000	44.910226	-45.000000	-25.646597	-2968.586726	-1551.639993	144.868573	180.000000	725.906673	52.868236	22.400304	14.752085	18.399853	40.530438	-44.996868	-40.049229	-27.716625	4040.328456	-2814.033386	24.846206	-32.575986	726.653865	20.108366	9.454626	-17.839267	
2.6100	-39.784487	-6.528240	6.687686	-91.745877	769.654141	7.276233	6.169986	-45.000000	44.839367	-45.000000	-25.941071	-2968.650090	-1551.553191	144.820452	180.000000	726.013880	52.725540	22.448408	14.764283	18.391559	40.547006	-44.994387	-40.137613	-27.815975	4040.436802	-2814.030872	24.886141	-32.469847	726.745652	20.198232	9.414194	-17.889563	
2.6200	-39.843860	-6.615292	6.810068	-93.055316	770.132827	7.234276	6.192137	-45.000000	44.713433	-45.000000	-26.348405	-2968.698386	-1551.468238	144.775151	180.000000	726.127242	52.542896	22.492709	14.779751	18.406221	40.590060	-44.989952	-40.288787	-28.014244	4040.503646	-2814.018611	24.930781	-32.300732	726.840310	20.248421	9.381296	-17.940995	
2.6300	-39.923746	-6.743117	7.012562	-94.475500	770.642018	7.180934	6.218274	-45.000000	44.505507	-45.000000	-26.903798	-2968.717282	-1551.382377	144.742069	180.000000	726.248254	52.322370	22.520583	14.786739	18.468584	40.683827	-44.981981	-40.511231	-28.377047	4040.532039	-2813.993852	25.000817	-32.046055	726.941553	20.253759	9.348715	-17.990048	
2.6400	-40.021991	-6.911617	7.297982	-95.998381	771.187771	7.116789	6.241669	-45.000000	44.200295	-45.000000	-27.643862	-2968.700235	-1551.280301	144.702535	180.000000	726.375183	52.071127	22.547508	14.796361	18.577092	40.811150	-44.967780	-40.801669	-28.904528	4040.499793	-2813.937206	25.082716	-31.696254	727.045527	20.213299	9.322012	-18.039646	
2.6500	-40.126651	-7.120168	7.653358	-97.615129	771.776267	7.042519	6.249646	-45.000000	43.810190	-45.000000	-28.539431	-2968.654085	-1551.153019	144.652561	180.000000	726.510704	51.799671	22.569807	14.800912	18.712781	40.942953	-44.942126	-41.132844	-29.559052	4040.432383	-2813.858332	25.176934	-31.271981	727.149641	20.132439	9.307079	-18.090774	
2.6600	-40.230371	-7.361908	8.060824	-99.317026	772.413411	6.958994	6.246662	-45.000000	43.348046	-45.000000	-29.561824	-2968.590101	-1550.997229	144.578614	180.000000	726.646140	51.519969	22.594807	14.807486	18.870848	41.074271	-44.896772	-41.489315	-30.300615	4040.341745	-2813.759965	25.288095	-30.782480	727.245950	20.008691	9.294159	-18.140094	
2.6700	-40.326892	-7.630636	8.508770	-101.096240	773.104562	6.867295	6.231445	-45.000000	42.849196	-45.000000	-30.665908	-2968.516209	-1550.807963	144.492820	180.000000	726.775742	51.242888	22.618915	14.812933	19.029072	41.198570	-44.813858	-41.856194	-31.092076	4040.226479	-2813.634478	25.411556	-30.254799	727.339493	19.844333	9.286613	-18.189321	
